# xmcd
#
# Track frame offsets:
#	150
#	24394
#	61847
#	98149
#	124176
#	144762
#	188556
#	200175
#	237127
#	262747
#
# Disc length: 3877 seconds
#
# Revision: 0
# Processed by: cddbd v1.4PL0 Copyright (c) Steve Scherf et al.
# Submitted via: audiograbber 1.81.03
#
DISCID=7d0f230a
DTITLE=Gary Moore - We Want Moore !
DYEAR=1900
DGENRE=
TTITLE0=Murder In The Skies
TTITLE1=Shapes Of Things
TTITLE2=Victims Of The Future
TTITLE3=Cold Hearted
TTITLE4=En Of The World
TTITLE5=Back On The Streets
TTITLE6=So Far Away
TTITLE7=Empty Rooms
TTITLE8=Don't Take Me For A Loser
TTITLE9=Rockin' and Rollin'
EXTD=
EXTT0=
EXTT1=
EXTT2=
EXTT3=
EXTT4=
EXTT5=
EXTT6=
EXTT7=
EXTT8=
EXTT9=
PLAYORDER=
